<?xml version="1.0" encoding="utf-8"?>
<!-- Generator: Adobe Illustrator 15.1.0, SVG Export Plug-In . SVG Version: 6.00 Build 0)  -->
<!DOCTYPE svg PUBLIC "-//W3C//DTD SVG 1.1//EN" "http://www.w3.org/Graphics/SVG/1.1/DTD/svg11.dtd">
<svg version="1.1" id="svg7324" xmlns:svg="http://www.w3.org/2000/svg"
	 xmlns="http://www.w3.org/2000/svg" xmlns:xlink="http://www.w3.org/1999/xlink" x="0px" y="0px" width="450px" height="300px"
	 viewBox="0 0 450 300" enable-background="new 0 0 450 300" xml:space="preserve">
<rect id="rect9131" y="0" fill="#fff" width="450" height="300"/>
<rect id="rect9135" y="0" fill="#2b7338" width="450" height="177.2"/>
<rect id="rect9133" y="204.2" fill="#da251d" width="450" height="95.8"/>
<rect id="rect9137" y="0" fill="#fff" width="41.7" height="300"/>
<path id="path10015" fill="none" stroke="#FFCD00" stroke-width="2" stroke-linecap="round" d="M21.7,139.4c-3.6-0.9-5.6-5.4-3-9.3
	c2.9-4.5,9.6-4.2,13,0.5c3.4,4.7,1.7,11.2-2.6,15.2c-5.2,4.8-14.1,3.9-18.3-3.1c-5.2-8.7-1-18.2,4.8-24.9l10.7-10.3
	c5.8-6.7,10.1-16.2,4.8-24.9c-4.2-6.9-13.1-7.8-18.3-3.1C8.4,83.6,6.7,90,10.2,94.7c3.4,4.7,10.1,5,13,0.5c2.5-3.9,0.6-8.4-3-9.3"/>
<path id="path11777" fill="none" stroke="#FFCD00" stroke-width="2" stroke-linecap="round" d="M20.1,235.9c3.6,0.9,5.6,5.4,3,9.3
	c-2.9,4.5-9.6,4.2-13-0.5c-3.4-4.7-1.7-11.2,2.7-15.2c5.2-4.8,14.1-3.9,18.3,3.1c5.2,8.7,1,18.2-4.8,24.9l-10.7,9.8
	c-5.8,6.7-10.1,16.2-4.8,24.9c4.2,6.9,13.1,7.8,18.3,3.1c4.4-4.1,6.1-10.5,2.6-15.2c-3.4-4.7-10.1-5-13-0.5c-2.5,3.9-0.6,8.4,3,9.3"
	/>
<path id="path11783" fill="none" stroke="#FFCD00" stroke-width="2" stroke-linecap="round" d="M21.7,11.3c-3.6,0.9-5.6,5.4-3,9.3
	c2.9,4.5,9.6,4.2,13-0.5c3.4-4.7,1.7-11.2-2.6-15.2c-5.3-4.9-14.2-4-18.4,2.9c-5.2,8.7-1,18.2,4.8,24.9l10.7,10.5
	C32,49.9,36.3,59.4,31,68.1C26.9,75,18,76,12.8,71.2C8.4,67.1,6.7,60.7,10.1,56s10.1-5,13-0.5c2.5,3.9,0.6,8.4-3,9.3"/>
<path id="path11785" fill="none" stroke="#FFCD00" stroke-width="2" stroke-linecap="round" d="M21.7,161c-3.6,0.9-5.6,5.4-3,9.3
	c2.9,4.5,9.6,4.2,13-0.5c3.4-4.7,1.7-11.2-2.6-15.2c-5.2-4.8-14.1-3.9-18.3,3.1c-5.2,8.7-1,18.2,4.8,24.9l10.7,9.9
	c5.8,6.7,10.1,16.2,4.8,24.9c-4.2,6.9-13.1,7.8-18.3,3.1c-4.4-4.1-6.1-10.5-2.7-15.2s10.1-5,13-0.5c2.5,3.9,0.6,8.4-3,9.3"/>
<path id="path11806" fill="#FFCD00" stroke="#FFCD00" stroke-width="2" stroke-linecap="square" stroke-linejoin="round" d="
	M9.7,75.4l11.1-1l11.1,0.9l-11.1,1L9.7,75.4z"/>
<path id="path12681" fill="#FFCD00" stroke="#FFCD00" stroke-width="2" stroke-linecap="square" stroke-linejoin="round" d="
	M9.7,150.2l11.1-1l11.1,0.9l-11.1,1L9.7,150.2z"/>
<path id="path12683" fill="#FFCD00" stroke="#FFCD00" stroke-width="2" stroke-linecap="square" stroke-linejoin="round" d="
	M9.7,224.9l11.1-1l11.1,0.9l-11.1,1L9.7,224.9z"/>
</svg>
